<?xml version="1.0" standalone="no"?>
<svg viewBox="0 0 200 200" xmlns="http://www.w3.org/2000/svg">
  <path fill="#24A148" d="M44.8,-78.4C58,-69.9,68.7,-57.9,77.1,-44.2C85.5,-30.6,91.6,-15.3,91.3,-0.2C91,14.9,84.2,29.8,75.9,43.5C67.5,57.3,57.5,69.8,44.6,78.4C31.7,87.1,15.8,92,0.1,91.9C-15.7,91.8,-31.5,86.8,-44.2,78C-57,69.2,-66.8,56.7,-73.8,43.1C-80.8,29.5,-85,14.7,-86.6,-0.9C-88.2,-16.6,-87.1,-33.1,-79.7,-46C-72.2,-58.8,-58.3,-67.9,-44,-75.7C-29.6,-83.6,-14.8,-90.2,0.5,-91.1C15.8,-91.9,31.5,-86.9,44.8,-78.4Z" transform="translate(100 100)" />
</svg>
